PathFileType  4	(X/Y/Z) /Users/kristensteudel/Documents/NMBL_Research/BertecForceProcessing/anc_files/
DataRate	CameraRate	NumFrames	NumMarkers	Units	OrigDataRate	OrigDataStartFrame	OrigNumFrames
  200.0		  200.0		    8		     46		 mm	  200.0	      179	    477
Frame#	Time	r_knee			r_shank_antsup			r_ankle			r_calc			r_5meta			r_toe			L_knee			L_shank_antsup			L_ankle			L_calc			L_5meta			L_toe			r_sh2			r_sh3			r_sh4			L_sh2			L_sh3			r_thigh1			r_thigh2			r_thigh3			r_thigh4			r_thigh5			L_thigh1			L_thigh2			L_thigh3			L_thigh4			r.ASIS			r.PSIS			L.ASIS			L.PSIS			C7			R_Shoulder			L_Shoulder			Sternum			R_humerus			R_elbow_med			R_elbow_lat			R_forearm			R_wrist_radius			R_wrist_ulna			L_humerus			L_elbow_med			L_elbow_lat			L_forearm			L_wrist_radius			L_wrist_ulna			
		X1	Y1	Z1	X2	Y2	Z2	X3	Y3	Z3	X4	Y4	Z4	X5	Y5	Z5	X6	Y6	Z6	X7	Y7	Z7	X8	Y8	Z8	X9	Y9	Z9	X10	Y10	Z10	X11	Y11	Z11	X12	Y12	Z12	X13	Y13	Z13	X14	Y14	Z14	X15	Y15	Z15	X16	Y16	Z16	X17	Y17	Z17	X18	Y18	Z18	X19	Y19	Z19	X20	Y20	Z20	X21	Y21	Z21	X22	Y22	Z22	X23	Y23	Z23	X24	Y24	Z24	X25	Y25	Z25	X26	Y26	Z26	X27	Y27	Z27	X28	Y28	Z28	X29	Y29	Z29	X30	Y30	Z30	X31	Y31	Z31	X32	Y32	Z32	X33	Y33	Z33	X34	Y34	Z34	X35	Y35	Z35	X36	Y36	Z36	X37	Y37	Z37	X38	Y38	Z38	X39	Y39	Z39	X40	Y40	Z40	X41	Y41	Z41	X42	Y42	Z42	X43	Y43	Z43	X44	Y44	Z44	X45	Y45	Z45	X46	Y46	Z46	

179	0.89500	1081.500	603.776	-147.909	1141.616	506.795	-136.020	1215.638	176.990	-151.104	1143.872	147.222	-215.462	1339.570	89.270	-143.516	1380.065	132.088	-195.615	796.007	529.414	-458.217	681.626	503.930	-443.968	395.301	605.186	-384.317	387.000	665.879	-329.740	294.262	474.749	-399.747	307.646	436.076	-331.354	1179.040	393.423	-139.831	1077.268	483.509	-103.712	1100.611	371.263	-125.981	695.251	591.044	-465.990	577.034	603.327	-433.527	1034.388	824.444	-137.941	1084.404	722.297	-157.035	1065.575	674.939	-127.702	944.268	772.021	-95.937	997.366	672.347	-129.952	907.701	728.944	-474.616	892.981	590.632	-454.923	791.520	740.821	-500.901	782.361	605.835	-463.888	913.050	1037.097	-170.186	704.723	1077.721	-251.723	902.699	1036.647	-432.080	700.270	1090.307	-355.394	865.617	1577.115	-294.667	858.332	1533.010	-89.237	978.523	1523.933	-454.785	987.074	1443.368	-247.359	692.890	1379.095	-34.651	556.958	1349.786	-120.050	555.189	1371.145	-39.219	653.742	1227.627	-17.901	712.802	1125.996	-23.002	665.633	1106.438	-12.529	898.236	1308.117	-572.485	744.026	1231.595	-560.596	810.729	1264.453	-628.442	936.535	1194.071	-540.374	1005.143	1194.434	-445.357	1000.614	1135.441	-484.853
180	0.90000	1072.475	598.581	-145.768	1130.139	497.506	-132.749	1195.167	166.871	-148.216	1123.203	140.097	-212.835	1316.110	74.449	-140.548	1359.102	116.044	-192.294	809.971	527.853	-461.639	697.599	507.297	-447.191	415.054	617.209	-383.302	407.713	678.364	-327.882	312.217	489.335	-401.199	324.920	449.332	-332.756	1164.204	383.117	-137.050	1064.766	474.763	-103.978	1084.966	363.052	-124.877	713.699	593.736	-466.813	596.361	609.875	-433.527	1031.337	821.671	-137.449	1078.879	718.527	-157.211	1059.860	671.649	-126.985	940.548	770.995	-95.249	991.690	669.916	-127.902	915.165	730.939	-476.873	905.103	591.789	-458.234	798.610	739.234	-502.327	794.096	603.819	-466.132	913.359	1035.370	-171.576	704.425	1076.430	-249.982	901.116	1036.341	-432.786	700.267	1087.753	-353.742	865.453	1574.377	-292.299	860.885	1528.593	-86.506	975.835	1523.192	-456.151	987.703	1441.454	-248.511	698.715	1369.627	-31.512	562.685	1336.618	-115.908	561.561	1357.490	-34.806	664.876	1216.577	-16.703	727.053	1116.945	-24.134	680.757	1095.894	-12.555	889.827	1308.169	-572.909	734.981	1234.968	-557.786	801.312	1266.092	-626.140	925.222	1184.943	-543.640	996.132	1177.416	-450.204	987.174	1120.382	-491.756
181	0.90500	1063.685	593.663	-143.829	1118.795	488.873	-130.384	1173.056	156.877	-145.160	1100.535	133.405	-210.603	1290.289	59.703	-137.326	1335.270	99.320	-188.907	825.065	527.583	-464.935	714.405	510.103	-450.579	435.284	628.053	-382.624	428.562	688.466	-326.585	331.234	501.765	-402.094	343.129	460.860	-334.576	1148.902	373.316	-134.215	1052.197	468.371	-103.661	1069.023	355.699	-123.703	732.540	597.307	-467.478	615.917	616.146	-433.953	1028.297	819.047	-136.813	1074.044	715.306	-156.040	1054.346	668.449	-126.523	936.855	769.769	-95.102	986.256	667.551	-125.978	922.975	732.716	-478.811	917.802	593.373	-461.447	806.140	737.816	-503.754	805.994	602.365	-468.684	913.623	1033.499	-172.660	703.887	1075.000	-247.693	899.544	1035.809	-433.197	699.381	1084.904	-352.570	864.908	1572.083	-289.398	863.341	1523.708	-83.855	973.065	1522.098	-457.153	988.103	1439.301	-249.841	704.915	1359.603	-28.581	569.100	1322.682	-110.981	568.703	1342.958	-29.794	676.774	1204.995	-15.315	742.196	1107.862	-25.119	696.927	1085.113	-12.857	881.327	1308.078	-573.261	726.234	1237.667	-554.248	791.938	1267.237	-623.865	913.439	1175.803	-547.267	986.042	1160.748	-455.479	972.497	1105.477	-499.050
182	0.91000	1055.248	589.022	-142.214	1106.881	480.558	-128.380	1149.296	147.238	-142.049	1076.064	126.369	-207.833	1262.470	45.302	-133.531	1309.162	82.688	-185.082	841.058	527.847	-468.158	730.621	513.363	-453.989	455.928	637.243	-382.423	449.371	697.486	-326.027	350.964	512.318	-403.512	362.166	470.377	-336.060	1133.118	364.160	-131.547	1039.550	462.506	-102.870	1052.523	349.226	-121.867	752.290	600.021	-468.510	636.437	622.209	-434.653	1025.385	816.598	-136.355	1069.005	712.307	-153.619	1049.028	665.329	-126.339	933.380	768.245	-95.360	981.289	665.067	-124.522	931.197	734.819	-480.524	930.878	595.468	-464.932	814.012	736.583	-505.146	818.813	601.371	-471.838	913.766	1031.702	-173.767	703.320	1072.779	-245.487	897.938	1034.898	-433.714	698.821	1082.259	-350.893	864.350	1569.920	-286.504	865.955	1518.590	-81.312	970.083	1520.262	-457.945	988.401	1437.021	-251.445	712.072	1349.022	-25.365	576.014	1308.071	-105.995	576.689	1327.918	-24.406	689.464	1192.961	-14.120	757.996	1098.592	-26.365	713.784	1074.154	-13.177	871.578	1307.834	-572.872	717.388	1239.902	-550.921	782.536	1267.913	-621.425	900.855	1166.565	-550.998	974.895	1143.559	-461.536	956.982	1090.709	-506.803
183	0.91500	1046.542	583.196	-140.162	1094.639	472.500	-125.281	1124.427	137.735	-138.897	1050.165	119.567	-204.312	1232.192	32.204	-129.208	1281.159	65.580	-182.017	857.837	528.723	-471.574	747.429	516.534	-457.601	477.416	644.432	-382.656	470.218	704.952	-325.989	371.384	520.948	-405.002	382.375	478.430	-337.419	1116.699	355.120	-129.172	1025.860	456.992	-101.503	1035.765	343.016	-120.056	771.974	601.981	-470.210	656.587	625.834	-435.258	1023.257	813.771	-135.716	1064.907	708.791	-153.008	1043.761	661.866	-126.719	929.916	766.542	-96.052	976.508	662.204	-123.488	939.566	737.576	-482.239	944.461	598.186	-467.998	822.298	735.823	-506.683	832.290	600.017	-475.355	913.775	1029.026	-173.900	701.809	1070.277	-242.884	896.522	1033.345	-434.161	698.500	1078.854	-348.863	865.285	1565.660	-284.508	868.940	1513.272	-78.894	965.329	1518.444	-459.662	988.744	1434.422	-253.283	719.698	1337.445	-22.272	583.440	1292.754	-101.150	585.416	1312.023	-18.827	703.729	1180.917	-12.858	774.465	1089.305	-27.957	731.551	1063.222	-13.963	862.477	1307.283	-572.713	709.129	1241.441	-547.214	772.990	1268.216	-619.072	887.652	1157.367	-554.870	962.249	1126.653	-468.204	939.837	1076.076	-514.700
184	0.92000	1038.124	577.729	-138.503	1081.801	464.347	-123.407	1097.330	128.668	-136.226	1021.006	116.145	-201.019	1196.206	29.250	-125.020	1248.657	49.771	-180.787	875.403	529.608	-474.909	764.568	520.243	-460.937	498.140	650.551	-383.106	491.050	710.709	-326.517	392.353	527.574	-406.355	403.149	484.634	-338.675	1099.302	345.948	-126.451	1012.019	450.832	-99.321	1018.201	336.847	-117.694	791.446	604.072	-472.810	677.062	629.553	-436.513	1021.848	811.704	-132.722	1061.963	705.003	-153.078	1038.649	658.311	-127.439	926.385	764.433	-96.460	971.950	658.855	-122.344	948.925	740.887	-483.780	958.733	601.458	-470.925	830.931	734.625	-508.050	846.074	600.263	-479.569	913.933	1025.915	-174.444	701.495	1067.696	-240.736	895.591	1031.836	-434.603	697.903	1075.107	-346.517	866.561	1561.066	-283.151	871.942	1507.842	-76.596	961.075	1516.772	-460.807	989.185	1431.642	-255.431	728.184	1325.524	-19.482	591.874	1276.709	-95.805	594.802	1295.688	-13.201	718.024	1168.457	-11.929	791.765	1080.432	-29.541	750.140	1052.456	-14.713	853.192	1306.545	-572.329	701.061	1242.446	-543.284	763.423	1268.095	-616.708	873.775	1148.326	-558.973	948.501	1110.371	-475.356	922.394	1062.767	-522.627
185	0.92500	1029.502	571.759	-136.528	1068.264	455.728	-120.921	1066.267	122.803	-136.054	987.013	111.517	-195.374	1166.343	30.102	-123.545	1210.989	52.797	-185.968	893.771	531.109	-478.152	782.087	524.292	-464.364	518.740	655.279	-384.077	511.230	715.380	-327.323	413.759	532.036	-407.525	424.741	489.374	-339.013	1081.067	336.730	-124.058	998.320	445.266	-96.952	999.809	330.688	-115.067	810.514	606.195	-476.529	696.772	632.808	-438.275	1020.164	807.967	-132.925	1058.220	700.316	-152.735	1033.527	654.457	-128.452	922.922	761.737	-96.258	967.420	655.050	-120.956	957.942	744.952	-485.157	973.969	605.585	-472.792	841.122	733.837	-510.930	861.460	599.674	-482.660	912.799	1023.313	-174.778	700.743	1064.863	-238.643	893.365	1028.894	-434.600	696.913	1071.402	-344.636	872.349	1555.262	-283.536	874.949	1502.031	-74.470	956.509	1514.798	-462.280	989.473	1428.550	-257.609	737.482	1313.204	-16.509	601.004	1260.378	-90.479	605.098	1278.820	-7.178	733.390	1156.083	-10.745	809.535	1071.674	-31.563	769.393	1041.961	-15.876	843.883	1305.507	-571.769	692.560	1242.924	-539.616	753.665	1267.556	-614.383	859.518	1139.639	-563.217	934.059	1095.034	-482.829	903.391	1049.896	-530.357
186	0.93000	1020.766	565.143	-134.658	1055.050	446.668	-119.106	1031.579	118.124	-139.709	947.230	98.403	-190.803	1133.989	29.721	-121.230	1178.334	50.942	-185.357	912.551	533.486	-481.249	795.937	529.358	-467.824	538.891	658.285	-385.346	530.566	718.988	-328.771	435.693	534.440	-408.466	446.500	491.509	-339.594	1060.688	327.308	-122.163	984.771	439.602	-93.930	980.059	325.080	-111.964	829.389	608.986	-481.013	716.042	635.493	-440.480	1017.087	802.857	-133.810	1053.945	695.026	-152.801	1027.921	649.374	-128.839	919.411	758.222	-95.034	962.452	650.483	-118.626	967.016	749.400	-486.113	989.475	611.120	-475.124	851.380	733.659	-512.577	877.578	599.930	-486.020	913.285	1022.376	-174.815	699.805	1061.721	-237.146	891.265	1027.245	-434.642	695.661	1067.143	-342.777	857.909	1554.705	-278.897	878.090	1496.243	-72.461	952.066	1512.397	-463.233	989.747	1425.285	-259.946	747.467	1300.533	-13.905	610.550	1243.592	-85.376	616.413	1261.602	-0.863	748.873	1143.904	-9.806	828.005	1063.624	-33.765	789.424	1031.982	-17.339	834.616	1304.121	-570.905	685.012	1242.155	-536.210	743.839	1266.772	-611.955	844.611	1131.453	-567.461	918.702	1080.701	-490.723	883.404	1038.184	-539.209
